# Blender v2.78 (sub 0) OBJ File: 'M4A4Silencer.blend'
# www.blender.org
mtllib m4a4silencer.mtl
o Cylinder
v -0.106807 -0.037643 4.061302
v -0.106807 -0.037644 2.586370
v -0.076126 -0.034622 4.061302
v -0.076126 -0.034622 2.586370
v -0.046623 -0.025672 4.061302
v -0.046623 -0.025672 2.586370
v -0.019434 -0.011139 4.061302
v -0.019434 -0.011139 2.586370
v 0.004398 0.008419 4.061302
v 0.004398 0.008419 2.586370
v 0.023956 0.032251 4.061302
v 0.023956 0.032251 2.586370
v 0.038489 0.059440 4.061302
v 0.038489 0.059440 2.586370
v 0.047439 0.088943 4.061302
v 0.047439 0.088943 2.586370
v 0.050460 0.119624 4.061302
v 0.050460 0.119624 2.586370
v 0.047439 0.150305 4.061302
v 0.047439 0.150305 2.586370
v 0.038489 0.179808 4.061302
v 0.038489 0.179807 2.586370
v 0.023956 0.206997 4.061302
v 0.023956 0.206997 2.586370
v 0.004398 0.230829 4.061302
v 0.004398 0.230829 2.586370
v -0.019434 0.250387 4.061302
v -0.019434 0.250387 2.586370
v -0.046623 0.264920 4.061302
v -0.046623 0.264920 2.586370
v -0.076126 0.273870 4.061302
v -0.076126 0.273869 2.586370
v -0.106807 0.276891 4.061302
v -0.106807 0.276891 2.586370
v -0.137488 0.273870 4.061302
v -0.137488 0.273869 2.586370
v -0.166991 0.264920 4.061302
v -0.166991 0.264920 2.586370
v -0.194180 0.250387 4.061302
v -0.194180 0.250387 2.586370
v -0.218012 0.230829 4.061302
v -0.218012 0.230829 2.586370
v -0.237570 0.206997 4.061302
v -0.237570 0.206997 2.586370
v -0.252103 0.179807 4.061302
v -0.252103 0.179807 2.586370
v -0.261053 0.150305 4.061302
v -0.261053 0.150305 2.586370
v -0.264075 0.119624 4.061302
v -0.264075 0.119624 2.586370
v -0.261053 0.088942 4.061302
v -0.261053 0.088942 2.586370
v -0.252103 0.059440 4.061302
v -0.252103 0.059440 2.586370
v -0.237570 0.032251 4.061302
v -0.237570 0.032251 2.586370
v -0.218012 0.008419 4.061302
v -0.218012 0.008419 2.586370
v -0.194180 -0.011139 4.061302
v -0.194180 -0.011139 2.586370
v -0.166991 -0.025672 4.061302
v -0.166991 -0.025672 2.586370
v -0.137488 -0.034622 4.061302
v -0.137488 -0.034622 2.586370
v -0.106807 -0.017240 2.586370
v -0.080106 -0.014610 2.586370
v -0.054431 -0.006822 2.586370
v -0.030769 0.005825 2.586370
v -0.010029 0.022846 2.586370
v 0.006991 0.043586 2.586370
v 0.019639 0.067248 2.586370
v 0.027427 0.092923 2.586370
v 0.030057 0.119624 2.586370
v 0.027427 0.146325 2.586370
v 0.019639 0.171999 2.586370
v 0.006991 0.195662 2.586370
v -0.010029 0.216401 2.586370
v -0.030769 0.233422 2.586370
v -0.054431 0.246070 2.586370
v -0.080106 0.253858 2.586370
v -0.106807 0.256488 2.586370
v -0.133508 0.253858 2.586370
v -0.159183 0.246070 2.586370
v -0.182845 0.233422 2.586370
v -0.203585 0.216401 2.586370
v -0.220606 0.195661 2.586370
v -0.233253 0.171999 2.586370
v -0.241041 0.146325 2.586370
v -0.243671 0.119624 2.586370
v -0.241041 0.092923 2.586370
v -0.233253 0.067248 2.586370
v -0.220605 0.043586 2.586370
v -0.203585 0.022846 2.586370
v -0.182845 0.005825 2.586370
v -0.159183 -0.006822 2.586370
v -0.133508 -0.014611 2.586370
v -0.176737 0.012882 2.586370
v -0.147272 0.007370 2.586370
v -0.116322 0.006523 2.586370
v -0.085076 0.010374 2.586370
v -0.054735 0.018774 2.586370
v -0.026464 0.031400 2.586370
v -0.001352 0.047768 2.586370
v -0.191859 0.037967 2.586370
v -0.159925 0.035895 2.586370
v -0.126031 0.037449 2.586370
v -0.091480 0.042570 2.586370
v -0.057599 0.051061 2.586370
v -0.025691 0.062596 2.586370
v 0.003019 0.076731 2.586370
v -0.203887 0.067072 2.586370
v -0.170842 0.069173 2.586370
v -0.135388 0.073472 2.586370
v -0.098886 0.079803 2.586370
v -0.062741 0.087922 2.586370
v -0.028340 0.097519 2.586370
v 0.002994 0.108223 2.586370
v -0.212274 0.098645 2.586370
v -0.179454 0.105173 2.586370
v -0.143842 0.112257 2.586370
v -0.106807 0.119624 2.586370
v -0.069772 0.126991 2.586370
v -0.034160 0.134074 2.586370
v -0.001340 0.140603 2.586370
v -0.216608 0.131025 2.586370
v -0.185274 0.141729 2.586370
v -0.150874 0.151325 2.586370
v -0.114728 0.159445 2.586370
v -0.078227 0.165776 2.586370
v -0.042772 0.170075 2.586370
v -0.009727 0.172176 2.586370
v -0.216633 0.162517 2.586370
v -0.187923 0.176652 2.586370
v -0.156015 0.188187 2.586370
v -0.122134 0.196678 2.586370
v -0.087583 0.201799 2.586370
v -0.053689 0.203353 2.586370
v -0.021755 0.201281 2.586370
v -0.212263 0.191480 2.586370
v -0.187150 0.207847 2.586370
v -0.158879 0.220474 2.586370
v -0.128538 0.228874 2.586370
v -0.097292 0.232724 2.586370
v -0.066342 0.231878 2.586370
v -0.036877 0.226366 2.586370
v -0.106807 -0.014968 4.061302
v -0.080550 -0.012382 4.061302
v -0.055301 -0.004723 4.061302
v -0.032032 0.007715 4.061302
v -0.011636 0.024453 4.061302
v 0.005102 0.044849 4.061302
v 0.017540 0.068118 4.061302
v 0.025199 0.093366 4.061302
v 0.027785 0.119624 4.061302
v 0.025199 0.145881 4.061302
v 0.017540 0.171130 4.061302
v 0.005102 0.194399 4.061302
v -0.011636 0.214795 4.061302
v -0.032032 0.231533 4.061302
v -0.055301 0.243971 4.061302
v -0.080550 0.251630 4.061302
v -0.106807 0.254216 4.061302
v -0.133065 0.251630 4.061302
v -0.158313 0.243971 4.061302
v -0.181582 0.231533 4.061302
v -0.201978 0.214795 4.061302
v -0.218716 0.194399 4.061302
v -0.231154 0.171130 4.061302
v -0.238813 0.145881 4.061302
v -0.241399 0.119624 4.061302
v -0.238813 0.093366 4.061302
v -0.231154 0.068118 4.061302
v -0.218716 0.044849 4.061302
v -0.201978 0.024453 4.061302
v -0.181582 0.007715 4.061302
v -0.158313 -0.004723 4.061302
v -0.133064 -0.012382 4.061302
v 0.009562 0.166593 4.061302
v 0.009225 0.137117 4.061302
v 0.004104 0.107103 4.061302
v -0.005604 0.077704 4.061302
v -0.019527 0.050052 4.061302
v -0.037129 0.025208 4.061302
v -0.057734 0.004126 4.061302
v -0.011732 0.185991 4.061302
v -0.015859 0.154793 4.061302
v -0.023861 0.122400 4.061302
v -0.035429 0.090058 4.061302
v -0.050119 0.059009 4.061302
v -0.067366 0.030446 4.061302
v -0.086507 0.005467 4.061302
v -0.037495 0.203176 4.061302
v -0.045862 0.171707 4.061302
v -0.056810 0.138336 4.061302
v -0.069919 0.104344 4.061302
v -0.084685 0.071040 4.061302
v -0.100540 0.039701 4.061302
v -0.116876 0.011533 4.061302
v -0.066339 0.217322 4.061302
v -0.078932 0.186920 4.061302
v -0.092597 0.153931 4.061302
v -0.106807 0.119624 4.061302
v -0.121017 0.085317 4.061302
v -0.134682 0.052328 4.061302
v -0.147275 0.021925 4.061302
v -0.096738 0.227715 4.061302
v -0.113074 0.199547 4.061302
v -0.128929 0.168208 4.061302
v -0.143695 0.134903 4.061302
v -0.156804 0.100912 4.061302
v -0.167752 0.067541 4.061302
v -0.176119 0.036072 4.061302
v -0.127107 0.233781 4.061302
v -0.146249 0.208802 4.061302
v -0.163496 0.180239 4.061302
v -0.178185 0.149190 4.061302
v -0.189753 0.116847 4.061302
v -0.197755 0.084455 4.061302
v -0.201882 0.053257 4.061302
v -0.155880 0.235121 4.061302
v -0.176485 0.214040 4.061302
v -0.194087 0.189196 4.061302
v -0.208010 0.161543 4.061302
v -0.217718 0.132145 4.061302
v -0.222839 0.102131 4.061302
v -0.223176 0.072655 4.061302
vn 0.0980 -0.9952 0.0000
vn 0.2903 -0.9569 0.0000
vn 0.4714 -0.8819 0.0000
vn 0.6344 -0.7730 0.0000
vn 0.7730 -0.6344 0.0000
vn 0.8819 -0.4714 0.0000
vn 0.9569 -0.2903 0.0000
vn 0.9952 -0.0980 0.0000
vn 0.9952 0.0980 -0.0000
vn 0.9569 0.2903 -0.0000
vn 0.8819 0.4714 -0.0000
vn 0.7730 0.6344 -0.0000
vn 0.6344 0.7730 -0.0000
vn 0.4714 0.8819 -0.0000
vn 0.2903 0.9569 -0.0000
vn 0.0980 0.9952 -0.0000
vn -0.0980 0.9952 -0.0000
vn -0.2903 0.9569 -0.0000
vn -0.4714 0.8819 -0.0000
vn -0.6344 0.7730 -0.0000
vn -0.7730 0.6344 -0.0000
vn -0.8819 0.4714 -0.0000
vn -0.9569 0.2903 -0.0000
vn -0.9952 0.0980 -0.0000
vn -0.9952 -0.0980 0.0000
vn -0.9569 -0.2903 0.0000
vn -0.8819 -0.4714 0.0000
vn -0.7730 -0.6344 0.0000
vn -0.6344 -0.7730 0.0000
vn -0.4714 -0.8819 0.0000
vn -0.0000 0.0000 -1.0000
vn -0.2903 -0.9569 0.0000
vn -0.0980 -0.9952 0.0000
vn -0.0000 0.0000 1.0000
usemtl None
s off
f 1//1 2//1 4//1 3//1
f 3//2 4//2 6//2 5//2
f 5//3 6//3 8//3 7//3
f 7//4 8//4 10//4 9//4
f 9//5 10//5 12//5 11//5
f 11//6 12//6 14//6 13//6
f 13//7 14//7 16//7 15//7
f 15//8 16//8 18//8 17//8
f 17//9 18//9 20//9 19//9
f 19//10 20//10 22//10 21//10
f 21//11 22//11 24//11 23//11
f 23//12 24//12 26//12 25//12
f 25//13 26//13 28//13 27//13
f 27//14 28//14 30//14 29//14
f 29//15 30//15 32//15 31//15
f 31//16 32//16 34//16 33//16
f 33//17 34//17 36//17 35//17
f 35//18 36//18 38//18 37//18
f 37//19 38//19 40//19 39//19
f 39//20 40//20 42//20 41//20
f 41//21 42//21 44//21 43//21
f 43//22 44//22 46//22 45//22
f 45//23 46//23 48//23 47//23
f 47//24 48//24 50//24 49//24
f 49//25 50//25 52//25 51//25
f 51//26 52//26 54//26 53//26
f 53//27 54//27 56//27 55//27
f 55//28 56//28 58//28 57//28
f 57//29 58//29 60//29 59//29
f 59//30 60//30 62//30 61//30
f 4//31 2//31 64//31 62//31 60//31 58//31 56//31 54//31 52//31 50//31 48//31 46//31 44//31 42//31 40//31 38//31 36//31 34//31 32//31 30//31 28//31 26//31 24//31 22//31 20//31 18//31 16//31 14//31 12//31 10//31 8//31 6//31
f 61//32 62//32 64//32 63//32
f 63//33 64//33 2//33 1//33
f 1//34 3//34 5//34 7//34 9//34 11//34 13//34 15//34 17//34 19//34 21//34 23//34 25//34 27//34 29//34 31//34 33//34 35//34 37//34 39//34 41//34 43//34 45//34 47//34 49//34 51//34 53//34 55//34 57//34 59//34 61//34 63//34
f 6//34 8//34 68//34 67//34
f 24//34 26//34 77//34 76//34
f 42//34 44//34 86//34 85//34
f 60//34 62//34 95//34 94//34
f 16//34 18//34 73//34 72//34
f 34//34 36//34 82//34 81//34
f 52//34 54//34 91//34 90//34
f 8//34 10//34 69//34 68//34
f 26//34 28//34 78//34 77//34
f 44//34 46//34 87//34 86//34
f 64//31 62//31 95//31 96//31
f 18//34 20//34 74//34 73//34
f 36//34 38//34 83//34 82//34
f 54//34 56//34 92//34 91//34
f 10//34 12//34 70//34 69//34
f 28//34 30//34 79//34 78//34
f 46//34 48//34 88//34 87//34
f 2//34 4//34 66//34 65//34
f 2//31 64//31 96//31 65//31
f 20//34 22//34 75//34 74//34
f 38//34 40//34 84//34 83//34
f 56//34 58//34 93//34 92//34
f 12//34 14//34 71//34 70//34
f 30//34 32//34 80//34 79//34
f 48//34 50//34 89//34 88//34
f 4//34 6//34 67//34 66//34
f 22//34 24//34 76//34 75//34
f 40//34 42//34 85//34 84//34
f 58//34 60//34 94//34 93//34
f 14//34 16//34 72//34 71//34
f 32//34 34//34 81//34 80//34
f 50//34 52//34 90//34 89//34
f 95//34 97//34 93//34 94//34
f 97//34 104//34 92//34 93//34
f 104//34 111//34 91//34 92//34
f 111//34 118//34 90//34 91//34
f 118//34 125//34 89//34 90//34
f 125//34 132//34 88//34 89//34
f 132//34 139//34 87//34 88//34
f 139//34 85//34 86//34 87//34
f 96//34 98//34 97//34 95//34
f 98//34 105//34 104//34 97//34
f 105//34 112//34 111//34 104//34
f 112//34 119//34 118//34 111//34
f 119//34 126//34 125//34 118//34
f 126//34 133//34 132//34 125//34
f 133//34 140//34 139//34 132//34
f 140//34 84//34 85//34 139//34
f 65//34 99//34 98//34 96//34
f 99//34 106//34 105//34 98//34
f 106//34 113//34 112//34 105//34
f 113//34 120//34 119//34 112//34
f 120//34 127//34 126//34 119//34
f 127//34 134//34 133//34 126//34
f 134//34 141//34 140//34 133//34
f 141//34 83//34 84//34 140//34
f 66//34 100//34 99//34 65//34
f 100//34 107//34 106//34 99//34
f 107//34 114//34 113//34 106//34
f 114//34 121//34 120//34 113//34
f 121//34 128//34 127//34 120//34
f 128//34 135//34 134//34 127//34
f 135//34 142//34 141//34 134//34
f 142//34 82//34 83//34 141//34
f 67//34 101//34 100//34 66//34
f 101//34 108//34 107//34 100//34
f 108//34 115//34 114//34 107//34
f 115//34 122//34 121//34 114//34
f 122//34 129//34 128//34 121//34
f 129//34 136//34 135//34 128//34
f 136//34 143//34 142//34 135//34
f 143//34 81//34 82//34 142//34
f 68//34 102//34 101//34 67//34
f 102//34 109//34 108//34 101//34
f 109//34 116//34 115//34 108//34
f 116//34 123//34 122//34 115//34
f 123//34 130//34 129//34 122//34
f 130//34 137//34 136//34 129//34
f 137//34 144//34 143//34 136//34
f 144//34 80//34 81//34 143//34
f 69//34 103//34 102//34 68//34
f 103//34 110//34 109//34 102//34
f 110//34 117//34 116//34 109//34
f 117//34 124//34 123//34 116//34
f 124//34 131//34 130//34 123//34
f 131//34 138//34 137//34 130//34
f 138//34 145//34 144//34 137//34
f 145//34 79//34 80//34 144//34
f 70//34 71//34 103//34 69//34
f 71//34 72//34 110//34 103//34
f 72//34 73//34 117//34 110//34
f 73//34 74//34 124//34 117//34
f 74//34 75//34 131//34 124//34
f 75//34 76//34 138//34 131//34
f 76//34 77//34 145//34 138//34
f 77//34 78//34 79//34 145//34
f 17//31 15//31 153//31 154//31
f 35//31 33//31 162//31 163//31
f 53//31 51//31 171//31 172//31
f 9//31 7//31 149//31 150//31
f 27//31 25//31 158//31 159//31
f 45//31 43//31 167//31 168//31
f 63//31 61//31 176//31 177//31
f 19//31 17//31 154//31 155//31
f 37//31 35//31 163//31 164//31
f 55//31 53//31 172//31 173//31
f 11//31 9//31 150//31 151//31
f 29//31 27//31 159//31 160//31
f 47//31 45//31 168//31 169//31
f 3//31 1//31 146//31 147//31
f 1//31 63//31 177//31 146//31
f 21//31 19//31 155//31 156//31
f 39//31 37//31 164//31 165//31
f 57//31 55//31 173//31 174//31
f 13//31 11//31 151//31 152//31
f 31//31 29//31 160//31 161//31
f 49//31 47//31 169//31 170//31
f 5//31 3//31 147//31 148//31
f 23//31 21//31 156//31 157//31
f 41//31 39//31 165//31 166//31
f 59//31 57//31 174//31 175//31
f 15//31 13//31 152//31 153//31
f 33//31 31//31 161//31 162//31
f 51//31 49//31 170//31 171//31
f 7//31 5//31 148//31 149//31
f 25//31 23//31 157//31 158//31
f 43//31 41//31 166//31 167//31
f 61//31 59//31 175//31 176//31
f 155//31 178//31 157//31 156//31
f 178//31 185//31 158//31 157//31
f 185//31 192//31 159//31 158//31
f 192//31 199//31 160//31 159//31
f 199//31 206//31 161//31 160//31
f 206//31 213//31 162//31 161//31
f 213//31 220//31 163//31 162//31
f 220//31 165//31 164//31 163//31
f 154//31 179//31 178//31 155//31
f 179//31 186//31 185//31 178//31
f 186//31 193//31 192//31 185//31
f 193//31 200//31 199//31 192//31
f 200//31 207//31 206//31 199//31
f 207//31 214//31 213//31 206//31
f 214//31 221//31 220//31 213//31
f 221//31 166//31 165//31 220//31
f 153//31 180//31 179//31 154//31
f 180//31 187//31 186//31 179//31
f 187//31 194//31 193//31 186//31
f 194//31 201//31 200//31 193//31
f 201//31 208//31 207//31 200//31
f 208//31 215//31 214//31 207//31
f 215//31 222//31 221//31 214//31
f 222//31 167//31 166//31 221//31
f 152//31 181//31 180//31 153//31
f 181//31 188//31 187//31 180//31
f 188//31 195//31 194//31 187//31
f 195//31 202//31 201//31 194//31
f 202//31 209//31 208//31 201//31
f 209//31 216//31 215//31 208//31
f 216//31 223//31 222//31 215//31
f 223//31 168//31 167//31 222//31
f 151//31 182//31 181//31 152//31
f 182//31 189//31 188//31 181//31
f 189//31 196//31 195//31 188//31
f 196//31 203//31 202//31 195//31
f 203//31 210//31 209//31 202//31
f 210//31 217//31 216//31 209//31
f 217//31 224//31 223//31 216//31
f 224//31 169//31 168//31 223//31
f 150//31 183//31 182//31 151//31
f 183//31 190//31 189//31 182//31
f 190//31 197//31 196//31 189//31
f 197//31 204//31 203//31 196//31
f 204//31 211//31 210//31 203//31
f 211//31 218//31 217//31 210//31
f 218//31 225//31 224//31 217//31
f 225//31 170//31 169//31 224//31
f 149//31 184//31 183//31 150//31
f 184//31 191//31 190//31 183//31
f 191//31 198//31 197//31 190//31
f 198//31 205//31 204//31 197//31
f 205//31 212//31 211//31 204//31
f 212//31 219//31 218//31 211//31
f 219//31 226//31 225//31 218//31
f 226//31 171//31 170//31 225//31
f 148//31 147//31 184//31 149//31
f 147//31 146//31 191//31 184//31
f 146//31 177//31 198//31 191//31
f 177//31 176//31 205//31 198//31
f 176//31 175//31 212//31 205//31
f 175//31 174//31 219//31 212//31
f 174//31 173//31 226//31 219//31
f 173//31 172//31 171//31 226//31
